<?xml version="1.0" encoding="utf-8"?>
<svg xmlns="http://www.w3.org/2000/svg" width="1200" height="209" viewBox="0 0 1200 209" fill="none">
<path d="M253.836 22L224.722 187L133.208 209H108.17L145.049 0H170.086L253.836 22ZM131.521 17.4413L100.796 191.568L74.189 198.005H51.9332L84.9295 11.0046H107.185L131.521 17.4413ZM876.589 18.5243C907.161 18.5243 927.982 33.7625 920.505 74.7882L874.111 83.931C878.503 59.3156 878.415 51.3449 870.184 51.3449C861.953 51.3449 857.797 55.7991 848.657 106.671C840.705 150.979 845.233 155.199 851.178 156.136C858.785 157.309 864.32 152.385 866.508 139.961L869.084 126.363H854.503L860.066 94.9493H918.153L912.082 129.177C904.436 171.14 880.519 188.957 846.184 188.957C805.97 188.957 792.538 165.045 803.406 105.264C814.87 40.561 839.667 18.5243 876.589 18.5243ZM357.576 22.5073C384.856 22.5073 400.508 44.5441 395.591 71.7383C393.589 83.4599 387.994 94.2439 380.119 102.683C389.394 110.889 393.84 124.017 390.925 139.489C386.008 166.684 362.239 186.61 334.96 186.61H276.637L306.309 22.5073H357.576ZM472.415 22.5073C500.871 22.5074 519.493 46.6539 514.286 76.4269C510.556 97.057 501.357 113.467 487.498 123.782L497.303 186.61H454.267L446.206 135.27H442.914L433.572 186.61H391.241L420.913 22.5073H472.415ZM611.068 186.61H568.267L571.871 150.742H550.941L541.927 186.61H499.126L542.438 22.5073H624.983L611.068 186.61ZM659.543 186.61H617.213L646.884 22.5073H689.215L659.543 186.61ZM754.221 97.9947L767.987 22.5073H809.142L779.706 186.61H736.905L726.897 104.09L711.977 186.61H670.822L700.494 22.5073H745.176L754.221 97.9947ZM992.856 22.5073C1021.31 22.5073 1039.93 46.6539 1034.73 76.4269C1031 97.057 1021.8 113.467 1007.94 123.782L1017.74 186.61H974.707L966.646 135.27H963.354L954.012 186.61H911.681L941.353 22.5073H992.856ZM1066.49 186.61H1024.16L1053.83 22.5073H1096.16L1066.49 186.61ZM1142.33 22.5073C1190.54 22.5073 1206.05 59.3133 1197.96 105.028C1189.81 149.804 1162.05 186.61 1112.9 186.61H1076.92L1106.59 22.5073H1142.33ZM71.0533 30.4383L44.9156 178.568L19.1261 184.803H0L28.3381 24.2033H47.4642L71.0533 30.4383ZM323.491 153.79H331.722C340.659 153.79 348.966 148.163 350.799 137.379C352.866 126.596 346.374 121.204 337.438 121.204H329.207L323.491 153.79ZM1124.58 148.632C1145.44 144.178 1150.61 124.017 1153.66 107.138C1157.51 84.8665 1158.49 65.1741 1140.52 60.4855L1124.58 148.632ZM559.582 116.281H575.339L581.35 57.6723H574.06L559.582 116.281ZM449.187 100.573H449.893C459.3 100.573 469.691 94.4783 472.945 77.1302C474.761 66.1119 467.099 57.4379 457.692 57.4379H456.987L449.187 100.573ZM969.627 100.573H970.333C979.74 100.573 990.131 94.4783 993.385 77.1302C995.201 66.1119 987.539 57.4379 978.132 57.4379H977.427L969.627 100.573ZM334.802 90.2584H335.978C344.914 90.2584 353.238 84.8665 355.475 73.1449C357.477 61.4232 351.407 55.3279 342.235 55.3279H341.059L334.802 90.2584Z" fill="#C2E476"/>
</svg>